<?xml version="1.0" standalone="no"?>
<!DOCTYPE svg PUBLIC "-//W3C//DTD SVG 20010904//EN"
 "http://www.w3.org/TR/2001/REC-SVG-20010904/DTD/svg10.dtd">
<svg version="1.0" xmlns="http://www.w3.org/2000/svg"
 width="1248.000000pt" height="1248.000000pt" viewBox="0 0 1248.000000 1248.000000"
 preserveAspectRatio="xMidYMid meet">
<metadata>
Created by potrace 1.14, written by Peter Selinger 2001-2017
</metadata>
<g transform="translate(0.000000,1248.000000) scale(0.100000,-0.100000)"
fill="#000000" stroke="none">
<path d="M4112 10352 c-6 -30 -9 -59 -5 -64 3 -6 1 -8 -4 -5 -10 6 -19 -19
-30 -83 -2 -13 -9 -30 -14 -36 -7 -8 -6 -15 2 -19 8 -6 8 -9 0 -14 -11 -7 -22
-40 -24 -73 -1 -10 -5 -18 -10 -18 -5 0 -7 -6 -4 -14 3 -8 3 -17 -1 -20 -3 -4
-7 -12 -9 -19 -5 -23 -10 -42 -16 -57 -3 -8 -8 -28 -11 -45 -6 -30 -13 -55
-16 -65 -1 -3 -2 -9 -1 -14 1 -4 -2 -13 -7 -20 -8 -9 -17 -37 -28 -91 -1 -5
-9 -37 -18 -70 -18 -65 -26 -95 -29 -110 -2 -5 -6 -16 -10 -22 -5 -8 -3 -13 5
-13 9 0 10 -2 1 -8 -13 -8 -44 -118 -35 -126 3 -3 1 -6 -5 -6 -5 0 -10 -6 -11
-12 0 -7 -3 -24 -7 -38 -3 -14 -7 -29 -8 -35 -2 -5 -6 -16 -10 -22 -5 -7 -6
-13 -3 -13 3 0 -1 -17 -8 -37 -7 -21 -12 -46 -10 -56 1 -9 -2 -15 -7 -11 -5 3
-10 -6 -10 -20 -2 -32 -3 -38 -30 -104 -7 -18 -6 -21 3 -16 10 6 10 5 2 -7
-12 -14 -29 -78 -26 -91 1 -5 -2 -8 -7 -8 -6 0 -10 -8 -9 -17 0 -22 -9 -60
-17 -73 -4 -6 -9 -23 -11 -38 -3 -15 -10 -45 -17 -67 -6 -22 -12 -44 -12 -50
-1 -5 -8 -30 -15 -55 -8 -25 -15 -53 -16 -63 -1 -10 -6 -28 -11 -40 -24 -52
-31 -87 -20 -87 9 0 9 -2 1 -8 -12 -7 -36 -82 -27 -82 3 0 1 -6 -4 -12 -5 -7
-9 -20 -8 -28 0 -8 -2 -17 -5 -20 -6 -5 -31 -95 -34 -120 -1 -9 -5 -20 -9 -26
-3 -6 -9 -25 -12 -42 -3 -17 -9 -41 -14 -54 -5 -13 -9 -26 -10 -30 0 -5 -1 -9
-2 -10 -3 -11 -11 -47 -14 -63 -2 -11 -4 -21 -5 -22 -2 -2 -4 -7 -5 -13 -1 -5
-4 -12 -5 -15 -1 -3 -3 -8 -4 -12 -1 -5 -5 -13 -9 -19 -4 -7 -8 -28 -9 -48 -2
-20 -6 -36 -9 -36 -4 0 -12 -28 -20 -62 -7 -35 -14 -65 -15 -68 0 -3 -3 -12
-6 -20 -22 -63 -28 -91 -23 -100 3 -5 1 -10 -5 -10 -6 0 -9 -4 -5 -9 3 -5 1
-12 -4 -16 -5 -3 -10 -13 -10 -23 -1 -31 -7 -57 -19 -79 -7 -13 -10 -23 -8
-23 3 0 1 -11 -4 -25 -12 -33 -22 -74 -24 -102 0 -13 -5 -23 -9 -23 -5 0 -5
-4 -2 -10 3 -5 1 -10 -6 -10 -7 0 -10 -3 -7 -6 3 -3 -1 -29 -8 -57 -15 -52
-22 -80 -29 -107 -2 -8 -4 -15 -5 -15 -1 0 -3 -7 -5 -15 -19 -73 -23 -95 -19
-101 2 -4 -1 -9 -6 -11 -6 -2 -13 -17 -15 -33 -2 -17 -4 -30 -5 -30 -2 0 -11
-35 -14 -55 -1 -9 -5 -20 -8 -26 -4 -6 -9 -21 -12 -35 -2 -13 -9 -36 -14 -50
-6 -15 -8 -30 -5 -33 3 -3 0 -12 -7 -21 -7 -8 -10 -22 -6 -30 3 -8 2 -15 -2
-15 -12 0 -44 -138 -36 -152 4 -7 3 -9 -2 -5 -7 7 -42 -97 -60 -183 -9 -38
-10 -44 -19 -62 -4 -10 -4 -25 -1 -34 4 -10 2 -13 -6 -8 -7 5 -9 2 -5 -8 3 -9
2 -19 -3 -24 -5 -5 -11 -22 -14 -38 -6 -33 -14 -44 -24 -31 -8 11 -25 16 -59
19 -11 0 -19 4 -17 8 6 10 -34 20 -47 12 -8 -4 -9 -3 -5 4 5 8 0 12 -13 12
-11 0 -23 5 -26 10 -4 6 -10 8 -15 5 -5 -3 -12 0 -15 6 -4 5 -13 8 -21 5 -8
-3 -14 -2 -14 3 0 4 -11 13 -25 19 -19 9 -25 9 -25 -1 0 -8 -4 -7 -10 3 -5 8
-13 15 -17 16 -4 0 -21 6 -38 13 -16 6 -42 16 -57 22 -15 6 -32 8 -38 4 -6 -3
-9 -3 -8 2 2 4 0 9 -5 10 -4 2 -23 9 -42 17 -19 8 -35 12 -35 8 0 -4 -4 -1 -9
6 -5 8 -20 15 -34 15 -14 1 -24 5 -22 8 2 3 -13 11 -33 18 -43 14 -63 22 -115
45 -21 9 -42 14 -47 11 -4 -3 -10 0 -12 6 -2 6 -15 12 -30 12 -14 1 -24 5 -22
8 3 5 -52 25 -81 30 -5 1 -18 7 -28 14 -23 16 -76 3 -94 -22 -21 -27 -15 -67
12 -93 14 -13 25 -20 25 -16 0 5 11 1 25 -8 14 -9 25 -14 25 -10 0 3 11 -1 25
-10 13 -9 33 -16 43 -16 10 0 22 -4 28 -9 11 -10 86 -36 97 -33 4 1 7 -3 7
-10 0 -6 3 -9 6 -5 4 3 23 -2 43 -12 20 -11 38 -19 41 -19 10 -1 66 -22 83
-32 10 -6 22 -8 27 -5 6 4 10 1 10 -4 0 -6 6 -11 14 -11 12 0 80 -25 151 -55
74 -32 139 -54 147 -49 4 3 8 2 8 -3 0 -8 36 -26 79 -38 13 -4 40 -14 60 -23
20 -9 47 -17 61 -18 34 -3 34 -2 21 -18 -7 -8 -13 -30 -14 -49 -1 -19 -5 -33
-8 -31 -4 2 -10 -13 -14 -34 -4 -20 -10 -41 -13 -47 -3 -5 -7 -16 -8 -25 -4
-41 -16 -85 -24 -95 -6 -7 -5 -16 3 -25 7 -8 8 -11 1 -7 -14 8 -29 -57 -18
-75 4 -7 3 -8 -4 -4 -11 6 -17 -12 -13 -36 0 -5 -4 -8 -10 -8 -6 0 -9 -7 -6
-15 4 -8 2 -17 -4 -21 -6 -4 -7 -10 0 -17 7 -9 2 -12 -15 -12 -13 0 -24 3 -24
6 0 3 -18 5 -40 3 -22 -1 -42 2 -46 7 -3 5 -13 5 -25 -1 -10 -6 -19 -7 -19 -3
0 5 -28 10 -62 12 -35 2 -79 5 -98 7 -19 1 -73 6 -120 9 -109 8 -148 12 -183
18 -15 2 -30 0 -33 -5 -3 -5 -11 -5 -18 1 -6 5 -56 12 -111 15 -55 3 -100 5
-100 6 0 1 -17 3 -38 6 -28 3 -36 0 -31 -9 6 -8 3 -8 -9 1 -20 17 -177 26
-177 11 0 -6 -4 -8 -10 -4 -5 3 -16 -7 -24 -22 -12 -24 -12 -33 -1 -61 8 -17
19 -33 25 -33 20 -3 25 -4 39 -13 10 -6 16 -5 19 3 3 8 8 9 16 2 6 -5 50 -12
96 -15 47 -4 104 -8 126 -11 23 -3 72 -7 110 -9 38 -3 90 -7 116 -10 91 -9
154 -9 168 -1 9 5 11 4 6 -3 -5 -8 2 -11 23 -8 17 2 33 1 37 -3 3 -3 24 -7 47
-8 40 -2 111 -7 220 -17 34 -3 45 -1 41 7 -5 8 -2 8 7 0 7 -7 21 -13 32 -13
10 0 15 -4 12 -10 -7 -12 -17 -49 -18 -72 -1 -10 -5 -18 -10 -18 -5 0 -7 -6
-4 -14 3 -8 3 -17 -1 -21 -4 -4 -7 -10 -8 -13 0 -4 -5 -25 -12 -46 -6 -22 -9
-43 -6 -48 3 -4 0 -8 -7 -8 -6 0 -9 -8 -6 -20 3 -11 1 -20 -4 -20 -6 0 -9 -6
-8 -13 1 -6 0 -19 -4 -27 -21 -57 -34 -110 -25 -104 5 4 3 -5 -6 -18 -9 -14
-14 -27 -11 -30 5 -5 -42 -10 -102 -10 -22 0 -30 -4 -26 -12 5 -8 3 -8 -8 -1
-11 9 -101 12 -119 5 -3 -1 -13 -1 -23 0 -10 1 -26 -4 -35 -12 -9 -8 -13 -8
-9 -1 7 12 -12 11 -318 -3 -66 -3 -142 -6 -170 -7 -27 -1 -56 -6 -62 -10 -7
-5 -13 -4 -13 1 0 5 -12 7 -27 5 -16 -2 -36 -4 -46 -4 -24 0 -55 -32 -61 -62
-2 -15 4 -35 18 -51 17 -23 29 -28 66 -28 25 0 47 1 50 2 5 1 82 4 348 14 81
3 129 9 139 18 13 10 15 10 9 0 -6 -9 -1 -11 18 -8 15 3 26 0 26 -6 0 -7 5 -7
13 -1 6 5 45 10 86 11 41 1 81 8 89 15 11 8 14 8 9 0 -9 -15 54 -13 65 2 5 6
8 5 8 -2 0 -7 6 -10 14 -7 8 3 17 1 21 -5 3 -6 1 -11 -6 -11 -7 0 -10 -2 -7
-6 3 -3 0 -25 -8 -50 -7 -24 -10 -44 -6 -44 4 0 0 -5 -8 -10 -12 -8 -13 -12
-2 -19 11 -6 10 -10 -4 -15 -9 -3 -14 -9 -12 -12 3 -3 0 -25 -8 -50 -7 -24
-10 -44 -6 -44 4 0 2 -4 -3 -8 -13 -9 -37 -88 -37 -124 0 -16 -5 -28 -10 -28
-6 0 -8 -9 -5 -20 3 -11 1 -20 -4 -20 -6 0 -9 -6 -8 -12 1 -7 -1 -20 -4 -28
-4 -8 -8 -24 -10 -35 -1 -11 -6 -26 -10 -32 -5 -7 -5 -13 0 -13 4 0 1 -5 -7
-10 -13 -9 -13 -10 0 -10 13 0 13 -2 1 -9 -8 -5 -15 -21 -17 -36 -2 -15 -16
-75 -33 -134 -17 -58 -32 -118 -35 -133 -2 -15 -8 -33 -13 -40 -4 -7 -9 -22
-11 -33 -6 -32 -17 -65 -30 -89 -3 -5 1 -6 9 -1 11 7 12 6 2 -6 -6 -8 -13 -28
-15 -44 -2 -17 -7 -33 -12 -37 -6 -4 -10 -25 -10 -46 -1 -22 -5 -40 -10 -39
-5 1 -9 -8 -11 -20 -2 -31 -9 -36 -45 -35 -17 0 -30 -5 -30 -11 0 -8 -3 -9 -8
-1 -10 15 -145 15 -154 0 -6 -8 -8 -7 -8 2 0 6 -9 12 -21 12 -13 0 -18 -4 -13
-12 6 -10 4 -10 -7 -2 -19 15 -121 16 -112 0 5 -8 3 -8 -8 0 -19 15 -121 16
-112 0 5 -8 3 -8 -8 0 -19 15 -121 16 -112 0 5 -8 3 -8 -8 0 -19 15 -121 16
-112 0 5 -8 3 -8 -8 0 -19 15 -121 16 -112 0 5 -8 3 -8 -8 0 -20 16 -122 16
-112 1 5 -9 3 -9 -8 -1 -19 15 -121 16 -112 0 5 -8 3 -8 -8 0 -19 15 -121 16
-112 0 5 -8 3 -8 -8 0 -21 16 -82 18 -73 2 6 -10 4 -10 -7 -2 -19 15 -121 16
-112 0 5 -8 3 -8 -8 0 -19 15 -201 16 -192 0 5 -8 3 -8 -8 0 -19 15 -121 16
-112 0 5 -8 3 -8 -8 0 -19 15 -121 16 -112 0 5 -8 3 -8 -8 0 -21 16 -82 18
-73 2 6 -10 4 -10 -7 -2 -19 15 -121 16 -112 0 4 -6 0 -6 -9 2 -22 18 -65 5
-85 -25 -13 -19 -14 -29 -4 -49 6 -14 15 -23 20 -20 5 4 11 1 13 -6 4 -10 233
-13 1054 -15 577 -2 1230 -4 1451 -5 265 -2 399 0 395 7 -3 6 0 6 9 -1 8 -5
46 -10 84 -9 l70 1 1 -108 c1 -75 6 -113 15 -125 11 -14 11 -15 1 -9 -11 7
-12 4 -3 -13 7 -12 9 -26 6 -31 -3 -5 -1 -11 5 -15 6 -4 8 -11 5 -16 -4 -5 -2
-9 4 -9 5 0 8 -8 6 -17 -1 -10 2 -24 8 -30 5 -7 7 -13 3 -13 -4 0 0 -10 9 -23
8 -13 12 -27 8 -30 -3 -4 -1 -7 5 -7 7 0 11 -3 10 -7 -4 -12 26 -73 34 -73 5
0 8 -9 8 -20 0 -11 5 -20 10 -20 6 0 10 -7 10 -15 0 -9 6 -18 14 -21 9 -3 12
-12 9 -21 -4 -11 -2 -14 5 -9 7 4 12 2 12 -6 1 -17 70 -94 82 -90 5 1 7 -2 4
-7 -7 -10 72 -81 137 -123 23 -15 47 -32 54 -38 7 -5 19 -10 28 -10 8 0 15 -5
15 -11 0 -6 9 -9 20 -6 11 3 18 1 15 -4 -7 -10 54 -37 93 -41 15 -2 30 -6 33
-11 3 -4 19 -9 35 -11 16 -3 47 -8 69 -14 32 -7 147 -8 288 -2 9 1 17 5 17 9
0 5 11 7 25 6 14 -2 27 1 31 6 3 5 10 7 15 3 6 -3 17 2 25 12 9 11 13 13 9 7
-3 -7 -4 -13 -2 -13 13 0 139 52 173 70 75 42 109 63 119 74 6 6 23 19 38 29
15 10 25 22 22 27 -3 6 1 7 9 4 9 -3 17 3 21 16 4 12 9 19 12 17 11 -12 85 81
76 96 -3 5 -2 7 4 4 11 -7 45 28 36 37 -4 3 -1 6 5 6 7 0 12 7 12 15 0 8 5 15
11 15 5 0 7 5 4 10 -3 6 -1 10 5 10 6 0 8 5 5 10 -3 6 -2 10 3 10 9 0 25 37
23 52 -1 5 4 8 10 8 5 0 7 5 4 10 -3 5 -2 10 3 10 8 0 43 97 48 135 1 11 3 20
4 20 5 0 23 104 24 140 1 17 5 36 9 43 5 6 4 12 -2 12 -9 0 -6 44 5 61 2 4 0
10 -6 14 -21 13 1 23 45 20 25 -1 45 2 45 7 0 7 4 7 13 0 14 -11 46 -10 66 3
9 5 12 4 8 -2 -4 -6 14 -10 48 -9 30 1 55 6 55 11 0 7 3 7 8 0 10 -14 84 -16
75 -2 -4 6 -1 7 8 2 18 -12 89 -12 113 -2 11 6 16 5 13 -1 -4 -5 16 -9 48 -8
30 1 55 6 55 11 0 7 3 7 8 0 10 -14 84 -16 75 -2 -4 6 -1 7 7 2 18 -11 180
-12 173 -1 -4 5 0 6 8 1 19 -12 159 -13 152 -1 -4 5 -1 6 8 0 19 -11 399 -12
391 0 -3 5 1 6 9 1 21 -14 60 -15 53 -3 -5 7 -2 8 6 3 19 -12 340 -13 333 -1
-4 5 0 6 8 1 19 -12 159 -13 152 -1 -4 5 -1 6 8 0 20 -12 81 -12 98 0 11 8 13
8 8 0 -4 -8 11 -11 48 -10 30 1 55 6 55 11 0 7 3 7 8 0 10 -14 84 -16 75 -2
-4 6 -1 7 8 1 8 -4 51 -8 97 -7 90 2 88 3 82 -66 -1 -17 2 -21 12 -15 10 6 11
5 1 -7 -13 -16 -12 -56 2 -78 6 -10 4 -12 -4 -6 -10 6 -11 3 -3 -11 12 -22 12
-24 12 -65 0 -20 4 -28 11 -23 8 5 9 2 1 -11 -7 -14 -6 -22 4 -32 7 -8 11 -20
8 -28 -4 -8 -1 -15 6 -15 6 0 9 -4 6 -9 -7 -11 25 -92 35 -86 4 3 6 -3 4 -12
-2 -16 20 -68 35 -83 3 -3 11 -17 19 -32 8 -15 22 -37 33 -47 10 -11 18 -23
18 -27 0 -15 140 -145 149 -140 6 4 9 1 6 -6 -4 -13 105 -89 169 -116 17 -8
43 -20 59 -29 15 -8 32 -11 37 -8 6 3 10 1 10 -4 0 -6 11 -11 25 -11 14 0 25
-4 25 -10 0 -5 15 -8 34 -6 19 1 33 -1 30 -6 -3 -4 5 -9 18 -9 13 -1 34 -4 48
-6 37 -7 251 -7 285 0 52 10 149 37 175 48 65 29 96 45 102 54 4 5 8 6 8 2 0
-4 20 6 45 23 25 17 43 35 40 41 -3 5 1 6 10 3 19 -8 167 138 211 207 46 72
74 126 67 133 -4 3 -2 6 3 6 11 0 42 65 49 99 2 12 6 25 9 29 3 5 7 19 10 33
3 13 8 35 11 49 4 14 8 35 9 47 1 12 5 25 9 29 3 4 2 16 -4 27 -6 11 -7 17 -1
13 6 -3 10 27 11 77 1 45 7 86 13 92 7 7 9 7 5 -1 -8 -14 85 -13 95 1 5 7 8 7
8 0 0 -5 18 -10 40 -11 25 0 37 3 33 10 -5 8 -2 8 8 0 21 -16 1012 -17 1002
-1 -5 9 -3 9 8 1 20 -15 201 -16 192 -1 -5 9 -3 9 8 1 20 -15 161 -16 152 -1
-5 9 -3 9 8 1 20 -16 441 -16 432 0 -5 8 -3 8 8 0 20 -16 801 -16 792 0 -4 7
-1 6 8 -1 8 -6 21 -11 29 -9 28 6 50 18 45 26 -3 4 1 10 8 13 8 3 13 16 11 29
-1 12 -3 28 -3 33 -1 6 -11 17 -23 25 -27 17 -221 23 -211 7 4 -6 1 -7 -8 -1
-20 12 -320 13 -312 1 4 -6 1 -7 -8 -1 -20 12 -169 12 -169 -1 0 -5 -5 -2 -11
8 -7 12 -15 15 -22 9 -7 -5 -29 -8 -49 -7 -21 1 -38 -3 -38 -9 0 -8 -3 -8 -8
-1 -10 14 -183 15 -175 1 5 -8 2 -8 -8 0 -8 6 -56 10 -116 9 -66 0 -103 3
-103 10 0 7 -3 7 -8 0 -8 -12 -81 -14 -98 -3 -6 4 -14 4 -18 0 -12 -11 -156
-9 -156 3 0 7 -3 7 -8 -1 -4 -6 -36 -10 -74 -9 -42 1 -68 -3 -68 -9 0 -6 -5
-4 -10 4 -5 8 -10 11 -10 5 0 -5 -5 -3 -10 5 -5 8 -10 10 -10 4 0 -6 -17 -10
-40 -9 -23 1 -40 -3 -40 -9 0 -8 -2 -8 -8 0 -4 6 -39 10 -82 10 l-74 -1 -21
62 c-12 33 -20 68 -19 77 1 9 -2 18 -7 22 -5 3 -7 10 -4 15 4 5 2 9 -4 9 -5 0
-8 8 -6 18 1 9 -2 22 -7 29 -5 7 -7 17 -4 22 4 5 2 12 -4 16 -5 3 -10 19 -10
36 0 16 -5 29 -12 29 -6 0 -9 3 -6 6 3 3 2 21 -4 41 -13 49 -19 76 -20 91 -1
6 -5 12 -10 12 -5 0 -7 4 -4 9 9 14 -5 42 -18 34 -7 -4 -7 -2 1 7 9 10 9 19
-2 40 -8 15 -12 30 -9 32 2 3 -2 20 -10 39 -7 19 -11 39 -9 46 2 6 -1 14 -6
18 -6 3 -11 19 -11 36 0 16 -5 29 -12 29 -6 0 -9 3 -6 6 4 3 -2 35 -12 72 -10
36 -16 70 -14 74 3 4 1 8 -4 8 -5 0 -9 6 -10 13 -1 15 -22 96 -30 117 -8 23
-9 28 -11 51 0 11 -4 18 -8 16 -5 -3 -8 9 -9 27 0 18 -4 41 -9 52 -10 24 -12
30 -14 50 0 8 -5 13 -10 10 -5 -4 -7 2 -4 13 4 15 12 18 44 15 29 -3 38 0 33
9 -6 9 -4 9 7 1 8 -7 36 -12 63 -13 26 0 57 -3 68 -7 15 -4 18 -3 13 6 -5 9
-2 10 11 3 11 -5 45 -9 77 -8 31 0 57 -1 57 -5 0 -3 24 -5 54 -5 33 0 52 4 48
10 -3 6 1 5 9 -1 8 -6 48 -13 89 -14 41 -1 118 -4 170 -5 52 -2 97 -4 100 -5
24 -10 97 3 114 19 36 37 16 112 -31 116 -10 0 -24 4 -31 9 -7 4 -12 2 -12 -4
0 -8 -6 -8 -20 0 -15 8 -20 8 -20 -2 0 -8 -3 -9 -8 -3 -4 6 -25 11 -47 12
-177 5 -294 11 -303 17 -6 3 -13 2 -17 -4 -4 -6 -11 -7 -17 -4 -6 4 -52 8
-102 10 -293 10 -346 13 -356 19 -5 3 -10 2 -10 -4 0 -26 -26 3 -28 31 -3 39
-10 50 -25 42 -9 -5 -9 -4 0 6 8 9 9 20 1 39 -5 14 -12 40 -15 56 -3 17 -8 32
-11 35 -4 3 -8 14 -10 25 -2 11 -6 27 -9 35 -3 8 -5 23 -4 33 1 10 -4 17 -16
17 -12 0 -14 3 -6 8 12 8 12 36 0 48 -4 4 -7 18 -7 30 0 13 -5 26 -10 29 -6 4
-8 11 -4 16 3 5 0 17 -7 25 -7 8 -8 14 -3 13 5 -1 11 0 14 1 3 1 28 3 55 4 28
1 55 4 60 7 6 3 34 5 63 4 28 0 52 2 52 5 0 3 28 6 63 6 34 1 94 5 132 8 108
11 153 14 250 21 100 7 130 11 144 19 5 4 12 2 16 -4 4 -6 11 -8 16 -4 9 5 46
9 176 18 58 4 108 30 99 51 -3 8 -1 15 4 17 14 5 -20 68 -36 68 -8 0 -14 5
-14 11 0 7 -11 4 -26 -6 -15 -9 -24 -13 -20 -7 4 6 -18 8 -62 5 -37 -3 -76 -5
-87 -4 -10 0 -26 -5 -34 -12 -8 -7 -12 -7 -9 -2 4 6 -12 9 -43 7 -33 -3 -47
-8 -43 -15 5 -9 4 -9 -4 -2 -14 13 -94 7 -86 -7 3 -5 -4 -4 -15 4 -18 11 -23
11 -31 -2 -5 -8 -10 -10 -10 -4 0 6 -10 10 -22 8 -13 -1 -29 -3 -36 -3 -8 -1
-10 -6 -6 -13 6 -10 4 -10 -7 -2 -11 8 -74 12 -74 4 0 -1 -25 -3 -55 -5 -30
-1 -95 -6 -145 -10 -49 -4 -106 -9 -125 -11 -187 -15 -214 -15 -201 -1 9 11 9
17 1 22 -6 4 -9 13 -6 20 2 7 2 16 -2 20 -4 4 -7 10 -8 13 -1 13 -16 67 -22
82 -3 8 -7 25 -8 37 -2 12 -7 31 -13 41 -6 11 -7 22 -4 26 3 3 1 6 -5 6 -6 0
-9 6 -6 14 3 8 0 17 -5 21 -6 3 -9 10 -7 14 3 4 -2 30 -10 57 -28 90 -35 126
-24 119 5 -3 11 -1 15 5 4 6 11 8 16 5 5 -4 9 -2 9 2 0 5 10 9 22 10 11 1 25
8 29 15 5 7 9 10 9 5 0 -4 13 -1 29 8 17 8 40 17 53 19 13 2 22 8 21 13 -1 6
9 8 22 5 16 -3 25 0 25 8 0 7 7 10 15 6 8 -3 15 -1 15 4 0 5 12 10 28 12 19 2
27 8 26 21 -1 13 1 15 10 8 15 -13 58 -2 49 12 -3 5 -1 7 5 3 6 -3 23 -1 39 6
15 6 30 12 33 12 30 7 100 41 100 48 0 5 5 6 10 3 6 -4 26 -1 46 5 31 10 33
14 22 28 -11 15 -11 15 3 5 12 -10 23 -10 50 0 19 6 36 14 39 17 3 3 12 6 20
8 35 7 186 67 192 76 4 6 8 8 8 3 0 -11 63 23 77 42 6 9 9 19 7 23 -3 5 -7 17
-9 28 -6 31 -33 53 -64 52 -41 -1 -112 -32 -104 -46 4 -8 3 -8 -6 0 -9 9 -22
7 -49 -6 -20 -10 -40 -16 -44 -13 -5 2 -8 0 -8 -4 0 -5 -21 -14 -46 -21 -42
-11 -45 -14 -33 -30 13 -15 12 -16 -3 -4 -15 12 -25 11 -65 -4 -26 -9 -52 -20
-58 -24 -5 -3 -30 -12 -55 -20 -25 -7 -49 -17 -54 -22 -6 -4 -18 -8 -28 -8
-10 0 -18 -5 -18 -11 0 -5 -4 -8 -8 -5 -5 3 -19 -1 -33 -7 -13 -7 -43 -19 -66
-26 -23 -8 -40 -17 -38 -22 3 -4 -5 -5 -17 -1 -13 3 -19 1 -15 -5 5 -7 0 -9
-13 -6 -11 3 -20 0 -20 -6 0 -6 -3 -10 -7 -9 -16 4 -119 -35 -130 -50 -8 -9
-13 -11 -13 -4 0 6 -7 9 -15 6 -8 -4 -12 -10 -9 -15 3 -5 -2 -6 -10 -3 -9 3
-16 1 -16 -6 0 -6 -5 -8 -11 -4 -6 3 -15 0 -20 -7 -7 -11 -9 -10 -10 4 -1 17
-4 29 -9 45 -1 4 -2 10 -1 14 0 4 -6 26 -15 50 -9 24 -17 52 -19 63 -9 51 -17
80 -23 85 -4 3 -8 16 -10 30 -5 47 -5 50 -13 50 -4 0 -7 6 -6 13 1 35 -4 58
-12 52 -5 -3 -13 0 -17 6 -4 8 -3 9 4 5 7 -4 12 -4 12 0 0 8 -20 82 -28 104
-3 8 -4 21 -3 28 1 6 -3 12 -9 12 -6 0 -9 4 -6 9 9 14 -24 111 -37 111 -8 0
-7 3 2 9 12 8 12 12 2 25 -8 9 -11 16 -7 16 3 0 1 11 -4 25 -5 14 -12 36 -14
48 -13 61 -16 71 -23 76 -5 3 -8 17 -9 31 -1 14 -3 32 -6 40 -17 45 -39 128
-44 162 -4 21 -11 38 -17 38 -6 0 -8 2 -5 6 5 4 0 33 -17 97 -15 53 -17 64
-22 89 -3 15 -9 25 -14 22 -5 -3 -8 3 -7 13 3 41 -2 64 -14 57 -7 -4 -8 -3 -4
4 4 6 2 21 -5 33 -6 12 -7 19 -1 15 5 -3 4 11 -4 32 -7 20 -13 45 -14 55 0 9
-4 17 -8 17 -4 0 -9 8 -10 18 -2 17 -9 53 -12 62 -4 10 -7 25 -8 43 -1 10 -6
16 -10 13 -4 -2 -7 8 -6 22 1 15 -1 32 -5 37 -3 6 -7 19 -8 29 -2 11 -10 33
-18 48 -7 16 -9 26 -4 23 6 -4 6 3 0 17 -5 13 -14 43 -21 68 -7 25 -17 61 -24
80 -6 19 -11 40 -12 45 -1 6 -3 12 -4 15 -1 3 -3 16 -6 30 -2 14 -7 32 -11 40
-7 18 -13 39 -15 63 -1 9 -5 17 -8 17 -3 0 -7 10 -7 23 -4 41 -13 68 -23 62
-5 -3 -7 0 -4 8 7 19 -15 100 -30 109 -8 6 -8 8 0 8 13 0 -6 74 -31 123 -8 15
-10 25 -4 21 8 -4 8 0 0 14 -6 11 -11 30 -11 41 0 12 -4 21 -8 21 -5 0 -8 10
-7 23 1 12 -2 27 -7 34 -5 7 -7 17 -3 23 3 5 1 10 -4 10 -6 0 -10 3 -10 8 4
21 -2 53 -8 49 -5 -3 -8 5 -9 16 -2 39 -13 82 -23 85 -6 2 -7 10 -5 17 5 12
-5 57 -23 105 -3 8 -8 24 -10 35 -6 28 -9 38 -16 55 -4 8 -8 29 -10 45 -3 17
-9 29 -15 28 -5 -1 -8 7 -5 17 3 11 1 32 -5 48 -6 15 -13 40 -16 55 -4 18 -11
25 -19 21 -9 -5 -9 -4 -1 5 11 12 7 61 -5 61 -3 0 -7 11 -7 25 -1 14 -5 33 -9
43 -9 19 -10 25 -18 62 -3 14 -11 41 -17 60 -5 19 -13 48 -16 65 -3 16 -9 34
-14 41 -6 6 -7 13 -5 16 3 3 0 18 -6 34 -7 16 -12 32 -11 36 1 7 -25 102 -35
128 -7 18 -9 28 -11 53 -1 10 -5 16 -9 14 -5 -3 -9 13 -10 36 -2 22 -6 43 -11
46 -4 3 -8 13 -8 21 0 8 -6 33 -12 55 -6 22 -13 51 -16 65 -2 14 -5 27 -6 30
-2 3 -2 8 -1 13 0 4 -4 7 -10 7 -5 0 -8 4 -4 10 3 5 -1 24 -8 42 -8 18 -12 39
-10 46 3 6 0 12 -6 12 -6 0 -10 3 -10 8 4 22 -2 42 -11 37 -6 -4 -8 -11 -5
-16 4 -5 3 -15 -2 -21 -8 -13 -13 -33 -15 -55 -1 -7 -6 -13 -11 -13 -5 0 -7
-7 -4 -15 4 -8 2 -17 -2 -19 -8 -5 -23 -55 -25 -81 -1 -5 -5 -13 -9 -16 -4 -3
-10 -18 -13 -34 -3 -16 -8 -33 -12 -39 -3 -6 -8 -17 -9 -23 -5 -23 -10 -38
-17 -55 -4 -9 -8 -22 -10 -30 -1 -7 -5 -19 -9 -25 -5 -7 -5 -13 -1 -13 3 0 2
-6 -3 -12 -6 -7 -21 -49 -33 -93 -13 -44 -27 -85 -33 -92 -5 -7 -6 -17 -2 -23
3 -5 2 -10 -3 -10 -9 0 -12 -11 -15 -59 -1 -16 -6 -29 -12 -28 -5 1 -10 -2
-10 -8 -1 -5 -11 -41 -23 -78 -12 -38 -19 -74 -15 -80 3 -5 1 -7 -4 -4 -15 9
-23 -29 -9 -43 8 -9 8 -11 -2 -8 -16 4 -46 -76 -38 -98 4 -10 2 -12 -6 -8 -7
5 -9 0 -6 -14 4 -12 3 -20 -2 -17 -7 5 -23 -32 -21 -48 1 -4 -6 -21 -14 -37
-8 -16 -14 -33 -13 -37 0 -4 -4 -21 -10 -36 -7 -16 -12 -34 -12 -41 0 -6 -4
-16 -8 -22 -8 -8 -34 -86 -37 -109 -1 -5 -7 -23 -13 -39 -7 -16 -14 -39 -15
-50 -1 -12 -5 -23 -9 -26 -4 -3 -10 -17 -12 -30 -2 -14 -5 -26 -7 -27 -1 -2
-2 -7 -3 -12 0 -5 -4 -13 -8 -17 -5 -4 -8 -18 -8 -31 0 -12 -5 -23 -12 -23 -6
0 -8 -3 -5 -6 3 -4 2 -16 -4 -27 -6 -11 -7 -17 -1 -13 5 3 0 -12 -10 -34 -11
-21 -21 -47 -23 -57 -2 -10 -4 -19 -5 -20 -2 -2 -4 -7 -5 -13 -1 -5 -4 -12 -5
-15 -1 -3 -3 -8 -4 -12 -1 -5 -8 -25 -15 -45 -7 -21 -10 -48 -6 -60 5 -17 4
-19 -3 -9 -8 11 -13 4 -23 -30 -7 -24 -13 -48 -14 -54 0 -5 -4 -13 -9 -16 -5
-4 -9 -20 -10 -37 0 -17 -4 -28 -8 -25 -5 2 -8 1 -9 -4 0 -4 -3 -17 -5 -28 -3
-11 -6 -27 -8 -35 -1 -9 -5 -20 -8 -25 -10 -16 -68 -196 -68 -211 0 -8 -4 -14
-8 -14 -5 0 -9 -6 -10 -12 -1 -7 -3 -24 -4 -38 -2 -14 -6 -27 -10 -30 -4 -3
-9 -15 -11 -27 -1 -11 -10 -31 -20 -44 -9 -13 -16 -18 -14 -10 1 7 -15 19 -38
27 -21 8 -42 19 -46 25 -3 6 -10 11 -15 10 -16 0 -57 12 -83 25 -13 7 -28 11
-33 8 -4 -3 -8 0 -8 5 0 6 -10 11 -23 11 -13 0 -27 4 -33 10 -5 5 -22 11 -37
12 -15 1 -27 6 -27 10 0 4 -3 7 -7 7 -5 -1 -10 0 -13 1 -3 1 -12 3 -20 5 -8 2
-62 16 -120 31 -58 14 -120 27 -137 28 -18 0 -33 4 -33 9 0 4 -12 7 -27 7 -50
0 -83 4 -83 10 0 8 -44 5 -60 -5 -9 -5 -11 -4 -6 3 5 8 -2 12 -21 13 -40 1
-141 8 -185 12 -25 3 -35 0 -31 -7 3 -6 0 -5 -8 2 -15 14 -33 17 -25 4 6 -10
-25 -9 -41 1 -7 5 -22 3 -34 -4 -14 -7 -19 -7 -15 0 7 10 -44 8 -63 -3 -5 -4
-12 0 -15 6 -4 8 -8 9 -11 3 -3 -5 -34 -10 -70 -9 -56 0 -117 -5 -230 -22 -16
-2 -50 -6 -74 -9 -25 -3 -47 -8 -50 -12 -3 -5 -17 -8 -31 -9 -24 -1 -42 -5
-100 -19 -14 -4 -36 -9 -50 -12 -14 -2 -34 -8 -45 -13 -16 -6 -125 -40 -145
-45 -40 -10 -90 -30 -90 -36 0 -5 -7 -6 -15 -3 -8 4 -15 1 -15 -5 0 -6 -6 -11
-14 -11 -19 0 -120 -43 -124 -53 -6 -13 -32 14 -32 33 0 9 -3 20 -7 24 -8 8
-10 13 -12 45 0 11 -7 26 -14 33 -7 7 -12 20 -12 28 1 8 -3 21 -8 28 -5 6 -7
12 -3 12 4 0 -1 11 -10 25 -9 14 -13 25 -10 25 3 0 -1 16 -9 36 -8 20 -15 45
-15 55 0 11 -5 19 -10 19 -6 0 -9 3 -9 8 3 19 -2 43 -8 39 -5 -3 -9 11 -10 30
-1 19 -6 40 -11 46 -5 7 -15 35 -22 62 -7 28 -21 65 -31 83 -11 18 -15 31 -9
27 11 -7 -8 53 -23 73 -5 6 -6 12 -2 12 4 0 2 6 -4 13 -6 8 -8 17 -4 20 3 4 1
7 -6 7 -7 0 -10 4 -7 9 4 5 1 22 -5 38 -6 15 -10 29 -10 31 1 1 -5 18 -13 37
-16 38 -16 37 -16 61 0 9 -5 12 -12 8 -6 -4 -8 -3 -5 3 4 6 0 29 -8 52 -15 43
-15 44 -15 62 0 5 -5 7 -12 3 -6 -4 -8 -3 -4 4 3 6 1 23 -5 39 -6 15 -13 39
-16 53 -2 13 -10 31 -16 39 -7 8 -11 16 -10 18 5 6 -21 92 -26 88 -3 -2 -7 11
-8 28 -1 18 -7 41 -12 52 -19 41 -28 68 -30 91 0 8 -4 13 -8 11 -5 -3 -9 5 -9
16 -3 31 -9 55 -17 63 -4 4 -7 16 -7 26 0 10 -4 18 -9 18 -4 0 -7 12 -5 26 2
20 -1 24 -14 19 -13 -5 -14 -3 -6 5 9 9 9 20 0 43 -6 18 -13 34 -16 37 -3 3
-7 16 -9 30 -1 14 -6 27 -10 30 -3 3 -8 14 -9 25 -4 18 -76 243 -89 275 -3 8
-5 20 -4 27 1 6 -3 14 -9 18 -5 3 -10 15 -10 26 0 10 -4 19 -9 19 -5 0 -7 9
-4 20 3 11 1 20 -4 20 -5 0 -10 12 -11 27 -1 15 -7 30 -13 34 -6 3 -10 8 -8
10 7 11 -23 99 -34 99 -8 0 -7 4 3 10 10 6 11 10 3 10 -7 0 -12 3 -12 8 3 19
-2 33 -11 27 -5 -3 -7 0 -4 8 3 8 -4 39 -14 70 -11 31 -17 58 -14 61 3 3 0 6
-6 6 -6 0 -12 12 -14 28 -2 21 -6 16 -16 -26z m-337 -1352 c-3 -5 -12 -10 -18
-10 -7 0 -6 4 3 10 19 12 23 12 15 0z m1008 -675 c-3 -9 -8 -14 -10 -11 -3 3
-2 9 2 15 9 16 15 13 8 -4z m2744 -330 c0 -8 -4 -12 -9 -9 -5 3 -6 10 -3 15 9
13 12 11 12 -6z m1434 -308 c-10 -9 -11 -8 -5 6 3 10 9 15 12 12 3 -3 0 -11
-7 -18z m334 -1147 c3 -6 -1 -7 -9 -4 -18 7 -21 14 -7 14 6 0 13 -4 16 -10z
m395 -534 c0 -2 -7 -7 -16 -10 -8 -3 -12 -2 -9 4 6 10 25 14 25 6z m-39 -83
c13 -16 12 -17 -3 -4 -10 7 -18 15 -18 17 0 8 8 3 21 -13z m-160 -80 c13 -16
12 -17 -3 -4 -10 7 -18 15 -18 17 0 8 8 3 21 -13z m-6276 -83 c-3 -5 -12 -10
-18 -10 -7 0 -6 4 3 10 19 12 23 12 15 0z m-325 -80 c0 -5 -2 -10 -4 -10 -3 0
-8 5 -11 10 -3 6 -1 10 4 10 6 0 11 -4 11 -10z m5831 -127 c13 -16 12 -17 -3
-4 -10 7 -18 15 -18 17 0 8 8 3 21 -13z m889 -227 c0 -2 -7 -7 -16 -10 -8 -3
-12 -2 -9 4 6 10 25 14 25 6z m995 -35 c3 -5 2 -12 -3 -15 -5 -3 -9 1 -9 9 0
17 3 19 12 6z m-8395 -51 c0 -5 -2 -10 -4 -10 -3 0 -8 5 -11 10 -3 6 -1 10 4
10 6 0 11 -4 11 -10z m7391 -13 c-10 -9 -11 -8 -5 6 3 10 9 15 12 12 3 -3 0
-11 -7 -18z m-151 -28 c0 -5 -4 -9 -8 -9 -5 0 -9 7 -9 15 0 8 4 12 9 9 4 -3 8
-9 8 -15z m-5999 -516 c13 -16 12 -17 -3 -4 -17 13 -22 21 -14 21 2 0 10 -8
17 -17z m5439 13 c0 -2 -8 -10 -17 -17 -16 -13 -17 -12 -4 4 13 16 21 21 21
13z m1680 -96 c0 -5 -5 -10 -11 -10 -5 0 -7 5 -4 10 3 6 8 10 11 10 2 0 4 -4
4 -10z m-1520 -14 c0 -2 -7 -7 -16 -10 -8 -3 -12 -2 -9 4 6 10 25 14 25 6z
m-6202 -31 c-3 -3 -9 2 -12 12 -6 14 -5 15 5 6 7 -7 10 -15 7 -18z m7882
-1349 c0 -2 -7 -7 -16 -10 -8 -3 -12 -2 -9 4 6 10 25 14 25 6z m370 -2 c0 -8
-19 -13 -24 -6 -3 5 1 9 9 9 8 0 15 -2 15 -3z m800 0 c0 -8 -19 -13 -24 -6 -3
5 1 9 9 9 8 0 15 -2 15 -3z m-10610 -28 c0 -2 -8 -10 -17 -17 -16 -13 -17 -12
-4 4 13 16 21 21 21 13z m9831 -23 c13 -16 12 -17 -3 -4 -10 7 -18 15 -18 17
0 8 8 3 21 -13z m320 0 c13 -16 12 -17 -3 -4 -10 7 -18 15 -18 17 0 8 8 3 21
-13z m480 0 c13 -16 12 -17 -3 -4 -10 7 -18 15 -18 17 0 8 8 3 21 -13z"/>
</g>
</svg>
